<svg xmlns="http://www.w3.org/2000/svg" viewBox="0 0 10.75 20.58">
    <defs>
        <style>.cls-1{fill:#fff;fill-rule:evenodd;}</style>
    </defs>
    <g id="Слой_2" data-name="Слой 2">
        <g id="ПРО_НАС" data-name="ПРО НАС">
            <g id="ХЕДЕР_копия_" data-name="ХЕДЕР (копия)">
                <g id="соцсети">
                    <path class="cls-1" d="M8.57,3.47c.64,0,1.27,0,1.91,0h.27V.15c-.34,0-.7-.08-1.06-.1C9,0,8.38,0,7.73,0A4.8,4.8,0,0,0,5,.86,4.15,4.15,0,0,0,3.29,3.63a9.7,9.7,0,0,0-.11,1.42c0,.75,0,1.49,0,2.24v.27H0v3.71H3.16v9.31H7V11.29h3.15c.16-1.24.32-2.46.48-3.73H7S7,5.73,7,4.93C7.05,3.84,7.7,3.51,8.57,3.47Z" />
                </g>
            </g>
        </g>
    </g>
</svg>