<svg xmlns="http://www.w3.org/2000/svg" viewBox="0 0 18.98 20.49"><defs><style>.cls-1{fill:#fff;}</style></defs><g id="Слой_2" data-name="Слой 2"><g id="ПРО_НАС" data-name="ПРО НАС"><g id="ХЕДЕР_копия_" data-name="ХЕДЕР (копия)"><g id="соцсети"><path id="LOGO" class="cls-1" d="M16.84,2c-.5-.47-2.51-2-7-2,0,0-5.28-.32-7.85,2.1C.57,3.57.06,5.72,0,8.38s-.12,7.65,4.57,9h0v2.06s0,.84.5,1,1-.43,1.66-1.11c.34-.38.81-.93,1.16-1.35a18,18,0,0,0,6-.45c.65-.22,4.32-.7,4.92-5.68C19.4,6.71,18.49,3.46,16.84,2Zm.55,9.48c-.5,4.17-3.48,4.43-4,4.61a16.24,16.24,0,0,1-5.13.45L5.28,19.81V16h0c-4-1.13-3.84-5.36-3.79-7.58s.45-4,1.66-5.27c2.18-2,6.66-1.72,6.66-1.72,3.79,0,5.6,1.19,6,1.58C17.2,4.26,17.91,7.19,17.39,11.48ZM14.13,13.1h0a4,4,0,0,1-.81,1h0a1.3,1.3,0,0,1-1.28.36,13.39,13.39,0,0,1-4.72-3.13,13.21,13.21,0,0,1-3.06-5l0-.24c-.1-.6.27-1,1.31-1.71h0a.8.8,0,0,1,1,.08,8.43,8.43,0,0,1,.82,1c.11.18.94,1.2.75,1.69-.06.28-.55.58-.81.82l0,0a.75.75,0,0,0-.12.58v.05a3.69,3.69,0,0,0,1.15,1.9,4.11,4.11,0,0,0,1.8,1.11.61.61,0,0,0,.59-.2l.38-.5a.85.85,0,0,1,1.08-.15,10.52,10.52,0,0,1,1,.63c.29.22.89.73.89.74A.77.77,0,0,1,14.13,13.1Zm-4-6.33a1.53,1.53,0,0,1,1.08.44,1.69,1.69,0,0,1,.41,1.14.11.11,0,0,1-.11.12h0a.11.11,0,0,1-.12-.11,1.48,1.48,0,0,0-.35-1A1.28,1.28,0,0,0,10.1,7,.14.14,0,0,1,10,6.89.12.12,0,0,1,10.11,6.77Zm2.44,2a2.87,2.87,0,0,0-.72-2.07A2.53,2.53,0,0,0,10.94,6a3.53,3.53,0,0,0-1.19-.28.12.12,0,0,1-.11-.13.11.11,0,0,1,.13-.11,3.24,3.24,0,0,1,2.24,1,3.19,3.19,0,0,1,.78,2.25.12.12,0,0,1-.12.12h0A.12.12,0,0,1,12.55,8.75ZM9.23,4.4a.13.13,0,0,1,.12-.12h0a4.55,4.55,0,0,1,3.3,1.34,4.3,4.3,0,0,1,1,1.57A6,6,0,0,1,14,9.24a.12.12,0,0,1-.12.12h0a.12.12,0,0,1-.12-.12,5.91,5.91,0,0,0-.33-2,4,4,0,0,0-.95-1.48,4.13,4.13,0,0,0-1.41-1,4.58,4.58,0,0,0-1.72-.32A.13.13,0,0,1,9.23,4.4Z"/></g></g></g></g></svg>