<svg xmlns="http://www.w3.org/2000/svg" viewBox="0 0 131.05 97.17"><defs><style>.cls-1{fill:#f43200;}.cls-2{fill:#f2f2f2;}</style></defs><g id="Слой_2" data-name="Слой 2"><g id="Слой_1-2" data-name="Слой 1"><path class="cls-1" d="M61.22,26.6V70.13L50.55,70V37.76L40.25,69.29C16,47.14,12.28,16.51,24.9,5.3,31.3-.39,41.35-2.2,56.5,3.38,50.14,2,40.42-.41,32.92,6.92c-9.45,9.25-8.21,27,3.22,44.41l6.91-24.71Zm20.56-.06H71.61V70H81.78Zm49.27,15.6V40.46c0-12.55-8.28-13.86-19.83-13.86-12.76,0-20.48,1.68-20.48,16.06V53.91c0,15.9,8.65,16.22,20.48,16.22,13.58,0,19.83-.43,19.83-15.06V53.8h-12v1.27c.06,5.77-4.33,5.46-9.14,5.46-7,0-7.26-2.73-7.26-9.23V44.52c0-6.21.64-8.3,7.26-8.3,3.94,0,8.87-.38,9.14,4.24v1.68ZM94.78,72.53a16,16,0,0,1-4.24,9.15,14.13,14.13,0,0,1-9.63,4c6.09.76,11.42-.58,15.15-4.33a17.45,17.45,0,0,0,4.53-8.8Z" transform="translate(0 0)"/><path class="cls-2" d="M71.21,24.27c-14.3-12.65-30.13-16.76-38-8.88a16.35,16.35,0,0,0-4.33,9.83c-.21-6.48,1.41-12,5.08-15.71C43.77-.32,64.48,6.33,81.26,24.27Zm33,48.26c-.89,2.8-1.94,5.81-3.71,8C88,95.9,57.19,88.7,38.44,71.88,23.47,58.45,15,41.15,15,26.55H0V70H9.46V42.57c3.6,11.73,11.22,24,22.08,34.48,22.91,22.2,54.21,26.16,67.55,11.2,3.78-4.24,5.33-9.7,5.52-15.72Z" transform="translate(0 0)"/></g></g></svg>