<svg xmlns="http://www.w3.org/2000/svg" viewBox="0 0 2179.89 466.85"><defs><style>.cls-1,.cls-6{opacity:0.2;}.cls-2,.cls-4,.cls-5,.cls-6{fill:none;stroke:#8592a1;stroke-miterlimit:10;}.cls-2{stroke-width:10px;}.cls-3{fill:#8592a1;}.cls-4,.cls-6{stroke-width:11px;}.cls-5{stroke-width:8px;}.cls-6{stroke-linecap:round;}</style></defs><g id="Слой_2" data-name="Слой 2"><g id="Слой_1-2" data-name="Слой 1"><g id="Розетка"><g class="cls-1"><path class="cls-2" d="M691.2,212.66H634.39a37.49,37.49,0,0,0-37.45,37.45V396a65.92,65.92,0,0,1-65.84,65.85H429.74A65.92,65.92,0,0,1,363.89,396V176.65a37.48,37.48,0,0,0-37.44-37.44H0"/><path class="cls-2" d="M0,110.8H326.45a65.92,65.92,0,0,1,65.85,65.85V396a37.49,37.49,0,0,0,37.44,37.45H531.1A37.49,37.49,0,0,0,568.54,396V250.11a65.92,65.92,0,0,1,65.85-65.85H691.2"/><path class="cls-3" d="M763.2,159.71v77.66l-66.59-18.25v-42.9l66.59-16.51m11-14.06-88.59,22v59.9l88.59,24.28V145.65Z"/><path class="cls-3" d="M790.61,133.54a9.67,9.67,0,0,1,9.66,9.66v13.32h18.08v84.4H800.27v13.32a9.67,9.67,0,0,1-9.66,9.66h-6.45a9.67,9.67,0,0,1-9.66-9.66v-111a9.67,9.67,0,0,1,9.66-9.66h6.45m0-11h-6.45A20.66,20.66,0,0,0,763.5,143.2v111a20.66,20.66,0,0,0,20.66,20.66h6.45a20.66,20.66,0,0,0,20.66-20.66v-2.32h18.08V145.52H811.27V143.2a20.66,20.66,0,0,0-20.66-20.66Z"/><path class="cls-3" d="M930.67,113.53V283.91H864.84a37.45,37.45,0,0,1-37.41-37.4V150.93a37.45,37.45,0,0,1,37.41-37.4h65.83m11-11H864.84a48.4,48.4,0,0,0-48.41,48.4v95.58a48.4,48.4,0,0,0,48.41,48.4h76.83V102.53Z"/><rect class="cls-4" x="880.99" y="187.75" width="52.94" height="21.95"/><path class="cls-2" d="M934.57,140.62h92.1a9.9,9.9,0,0,1,9.9,9.9v8.6a9.9,9.9,0,0,1-9.9,9.9h-92.1a0,0,0,0,1,0,0v-28.4a0,0,0,0,1,0,0Z"/><path class="cls-2" d="M934.57,228.42h92.1a9.9,9.9,0,0,1,9.9,9.9v8.6a9.9,9.9,0,0,1-9.9,9.9h-92.1a0,0,0,0,1,0,0v-28.4a0,0,0,0,1,0,0Z"/></g><g class="cls-1"><path class="cls-2" d="M1475.06,223h144.6a37.49,37.49,0,0,1,37.45,37.45v67.13A65.92,65.92,0,0,0,1723,393.42h221.43a65.92,65.92,0,0,0,65.85-65.85V187a37.48,37.48,0,0,1,37.44-37.44h132.22"/><path class="cls-2" d="M2179.89,121.13H2047.67A65.92,65.92,0,0,0,1981.83,187V327.57A37.49,37.49,0,0,1,1944.38,365H1723a37.49,37.49,0,0,1-37.44-37.45V260.44a65.92,65.92,0,0,0-65.85-65.85h-144.6"/><path class="cls-3" d="M1406.31,171.33l66.59,16.51v42.9L1406.31,249V171.33m-11-14.06V263.41l88.59-24.28v-59.9l-88.59-22Z"/><path class="cls-3" d="M1386.27,145.16a9.68,9.68,0,0,1,9.66,9.66v111a9.68,9.68,0,0,1-9.66,9.66h-6.46a9.68,9.68,0,0,1-9.66-9.66V252.54h-18.07v-84.4h18.07V154.82a9.68,9.68,0,0,1,9.66-9.66h6.46m0-11h-6.46a20.66,20.66,0,0,0-20.66,20.66v2.32h-18.07v106.4h18.07v2.32a20.66,20.66,0,0,0,20.66,20.66h6.46a20.66,20.66,0,0,0,20.66-20.66v-111a20.66,20.66,0,0,0-20.66-20.66Z"/><path class="cls-3" d="M1302.21,108.76a37.45,37.45,0,0,1,37.4,37.4V271.94a37.45,37.45,0,0,1-37.4,37.4h-85.5V108.76h85.5m0-11h-96.5V320.34h96.5a48.4,48.4,0,0,0,48.4-48.4V146.16a48.4,48.4,0,0,0-48.4-48.4Z"/><line class="cls-5" x1="1244.44" y1="108.73" x2="1244.44" y2="311.03"/></g><line class="cls-6" x1="1176.86" y1="91.22" x2="1195.91" y2="25.5"/><line class="cls-6" x1="953.86" y1="25.5" x2="972.91" y2="91.22"/><line class="cls-6" x1="1069.21" y1="5.5" x2="1069.21" y2="71.22"/><line class="cls-6" x1="1176.86" y1="324.5" x2="1195.91" y2="390.22"/><line class="cls-6" x1="953.86" y1="390.22" x2="972.91" y2="324.5"/><line class="cls-6" x1="1069.21" y1="410.22" x2="1069.21" y2="344.5"/></g></g></g></svg>