<svg xmlns="http://www.w3.org/2000/svg" viewBox="0 0 19.79 19.78"><defs><style>.cls-1{fill:#fff;}</style></defs><g id="Слой_2" data-name="Слой 2"><g id="ПРО_НАС" data-name="ПРО НАС"><g id="ХЕДЕР_копия_" data-name="ХЕДЕР (копия)"><g id="соцсети"><path class="cls-1" d="M19.63,5A5.35,5.35,0,0,0,18,1.58,5.5,5.5,0,0,0,14.4.11,71.93,71.93,0,0,0,4.61.22,5,5,0,0,0,.33,4.06C-.14,5.75,0,13.51.23,15.17a5,5,0,0,0,4,4.32c1.56.4,9.24.35,11,.07a5,5,0,0,0,4.33-4C19.94,13.87,19.78,6.52,19.63,5Zm-1.82,9.89a3.36,3.36,0,0,1-3.15,3c-1.6.17-8.73.27-10.21-.14A3.26,3.26,0,0,1,2,14.9a66.55,66.55,0,0,1,0-10,3.34,3.34,0,0,1,3.13-3,68.78,68.78,0,0,1,9.74,0,3.34,3.34,0,0,1,3,3.15A73.4,73.4,0,0,1,17.81,14.85ZM9.9,4.82A5.07,5.07,0,1,0,15,9.89,5.07,5.07,0,0,0,9.9,4.82Zm0,8.35A3.28,3.28,0,1,1,13.18,9.9,3.28,3.28,0,0,1,9.86,13.17Zm6.49-8.54a1.19,1.19,0,0,1-2.37,0,1.19,1.19,0,1,1,2.37,0Z"/></g></g></g></g></svg>