<svg xmlns="http://www.w3.org/2000/svg" viewBox="0 0 20.29 16.77"><defs><style>.cls-1{fill:#fff;}</style></defs><g id="Слой_2" data-name="Слой 2"><g id="ПРО_НАС" data-name="ПРО НАС"><g id="ХЕДЕР_копия_" data-name="ХЕДЕР (копия)"><g id="соцсети"><path id="LOGO" class="cls-1" d="M20.28,1.19c-.06.72-.47,3.26-.89,6L18.1,15.34s-.11,1.2-1,1.4-2.33-.72-2.59-.93-3.89-2.49-5.24-3.63a1,1,0,0,1,.05-1.66c1.87-1.71,4.1-3.84,5.45-5.19C15.4,4.71,16,3.26,13.43,5L6.12,10A3,3,0,0,1,3.73,10C2.18,9.53.36,8.91.36,8.91s-1.24-.78.88-1.61h0l12.09-5C14.52,1.81,18.57.15,18.57.15S20.43-.58,20.28,1.19Z"/></g></g></g></g></svg>